<svg width="1400" height="470" viewBox="0 0 1400 470" fill="none" xmlns="http://www.w3.org/2000/svg">
  <defs>
    <linearGradient id="bg" x1="0" y1="0" x2="1400" y2="470" gradientUnits="userSpaceOnUse">
      <stop stop-color="#060A12"/>
      <stop offset="0.52" stop-color="#0D1117"/>
      <stop offset="1" stop-color="#081827"/>
    </linearGradient>
    <linearGradient id="line" x1="70" y1="82" x2="1320" y2="350" gradientUnits="userSpaceOnUse">
      <stop stop-color="#58A6FF"/>
      <stop offset="0.52" stop-color="#2F81F7"/>
      <stop offset="1" stop-color="#39D353"/>
    </linearGradient>
    <radialGradient id="glow" cx="0" cy="0" r="1" gradientUnits="userSpaceOnUse" gradientTransform="translate(665 235) rotate(18) scale(620 250)">
      <stop stop-color="#58A6FF" stop-opacity=".20"/>
      <stop offset="1" stop-color="#58A6FF" stop-opacity="0"/>
    </radialGradient>
    <pattern id="grid" width="42" height="42" patternUnits="userSpaceOnUse">
      <path d="M42 0H0V42" stroke="#1F2A3A" stroke-width="1" opacity=".42"/>
    </pattern>
    <style>
      .dash { stroke-dasharray: 12 18; animation: dash 18s linear infinite; }
      .scan { animation: scan 5.4s ease-in-out infinite; }
      @keyframes dash { to { stroke-dashoffset: -520; } }
      @keyframes scan {
        0%, 100% { transform: translateX(-180px); opacity: 0; }
        20%, 62% { opacity: .68; }
        82% { transform: translateX(1140px); opacity: 0; }
      }
    </style>
  </defs>

  <rect width="1400" height="470" rx="30" fill="url(#bg)"/>
  <rect width="1400" height="470" rx="30" fill="url(#grid)" opacity=".72"/>
  <rect width="1400" height="470" rx="30" fill="url(#glow)"/>
  <rect x="34" y="34" width="1332" height="402" rx="26" fill="#0D1117" opacity=".70" stroke="#30363D"/>

  <g class="scan">
    <rect x="66" y="52" width="180" height="366" rx="90" fill="#58A6FF" opacity=".075"/>
    <rect x="150" y="52" width="3" height="366" fill="#A5D6FF" opacity=".82"/>
  </g>

  <path class="dash" d="M70 390C238 286 350 386 514 282C676 178 830 322 990 212C1135 112 1242 168 1322 118" stroke="url(#line)" stroke-width="2" opacity=".30"/>

  <text x="70" y="84" fill="#F0F6FC" font-family="Inter, Segoe UI, Arial, sans-serif" font-size="30" font-weight="900" letter-spacing="2">PROFESSIONAL STACK</text>
  <text x="70" y="114" fill="#8B949E" font-family="JetBrains Mono, Consolas, monospace" font-size="15">organized by practical use, not just by logo collection</text>

  <g>
      <rect x="70" y="124" width="590" height="142" rx="20" fill="#0B111D" stroke="#263449"/>
      <text x="96" y="162" fill="#F0F6FC" font-family="Inter, Segoe UI, Arial, sans-serif" font-size="23" font-weight="900">Frontend</text>
      <text x="96" y="186" fill="#8B949E" font-family="JetBrains Mono, Consolas, monospace" font-size="13">interfaces, components and responsive layouts</text>
      <g transform="translate(96 196)">
        <rect width="89" height="38" rx="12" fill="#101826" stroke="#263449"/>
        <circle cx="21" cy="19" r="5" fill="#E34F26"/>
        <text x="36" y="24" fill="#F0F6FC" font-family="Inter, Segoe UI, Arial, sans-serif" font-size="14" font-weight="800">HTML5</text>
      </g>
<g transform="translate(197 196)">
        <rect width="80" height="38" rx="12" fill="#101826" stroke="#263449"/>
        <circle cx="21" cy="19" r="5" fill="#1572B6"/>
        <text x="36" y="24" fill="#F0F6FC" font-family="Inter, Segoe UI, Arial, sans-serif" font-size="14" font-weight="800">CSS3</text>
      </g>
<g transform="translate(289 196)">
        <rect width="134" height="38" rx="12" fill="#101826" stroke="#263449"/>
        <circle cx="21" cy="19" r="5" fill="#F7DF1E"/>
        <text x="36" y="24" fill="#F0F6FC" font-family="Inter, Segoe UI, Arial, sans-serif" font-size="14" font-weight="800">JavaScript</text>
      </g>
<g transform="translate(435 196)">
        <rect width="89" height="38" rx="12" fill="#101826" stroke="#263449"/>
        <circle cx="21" cy="19" r="5" fill="#61DAFB"/>
        <text x="36" y="24" fill="#F0F6FC" font-family="Inter, Segoe UI, Arial, sans-serif" font-size="14" font-weight="800">React</text>
      </g>
<g transform="translate(96 240)">
        <rect width="125" height="38" rx="12" fill="#101826" stroke="#263449"/>
        <circle cx="21" cy="19" r="5" fill="#7952B3"/>
        <text x="36" y="24" fill="#F0F6FC" font-family="Inter, Segoe UI, Arial, sans-serif" font-size="14" font-weight="800">Bootstrap</text>
      </g>
<g transform="translate(233 240)">
        <rect width="152" height="38" rx="12" fill="#101826" stroke="#263449"/>
        <circle cx="21" cy="19" r="5" fill="#06B6D4"/>
        <text x="36" y="24" fill="#F0F6FC" font-family="Inter, Segoe UI, Arial, sans-serif" font-size="14" font-weight="800">Tailwind CSS</text>
      </g>
    </g>
<g>
      <rect x="70" y="292" width="590" height="142" rx="20" fill="#0B111D" stroke="#263449"/>
      <text x="96" y="330" fill="#F0F6FC" font-family="Inter, Segoe UI, Arial, sans-serif" font-size="23" font-weight="900">Backend &amp; Tools</text>
      <text x="96" y="354" fill="#8B949E" font-family="JetBrains Mono, Consolas, monospace" font-size="13">APIs, versioning and project structure</text>
      <g transform="translate(96 364)">
        <rect width="98" height="38" rx="12" fill="#101826" stroke="#263449"/>
        <circle cx="21" cy="19" r="5" fill="#3776AB"/>
        <text x="36" y="24" fill="#F0F6FC" font-family="Inter, Segoe UI, Arial, sans-serif" font-size="14" font-weight="800">Python</text>
      </g>
<g transform="translate(206 364)">
        <rect width="71" height="38" rx="12" fill="#101826" stroke="#263449"/>
        <circle cx="21" cy="19" r="5" fill="#777BB4"/>
        <text x="36" y="24" fill="#F0F6FC" font-family="Inter, Segoe UI, Arial, sans-serif" font-size="14" font-weight="800">PHP</text>
      </g>
<g transform="translate(289 364)">
        <rect width="71" height="38" rx="12" fill="#101826" stroke="#263449"/>
        <circle cx="21" cy="19" r="5" fill="#F05032"/>
        <text x="36" y="24" fill="#F0F6FC" font-family="Inter, Segoe UI, Arial, sans-serif" font-size="14" font-weight="800">Git</text>
      </g>
<g transform="translate(372 364)">
        <rect width="98" height="38" rx="12" fill="#101826" stroke="#263449"/>
        <circle cx="21" cy="19" r="5" fill="#F0F6FC"/>
        <text x="36" y="24" fill="#F0F6FC" font-family="Inter, Segoe UI, Arial, sans-serif" font-size="14" font-weight="800">GitHub</text>
      </g>
<g transform="translate(482 364)">
        <rect width="80" height="38" rx="12" fill="#101826" stroke="#263449"/>
        <circle cx="21" cy="19" r="5" fill="#58A6FF"/>
        <text x="36" y="24" fill="#F0F6FC" font-family="Inter, Segoe UI, Arial, sans-serif" font-size="14" font-weight="800">APIs</text>
      </g>
    </g>
<g>
      <rect x="740" y="124" width="590" height="142" rx="20" fill="#0B111D" stroke="#263449"/>
      <text x="766" y="162" fill="#F0F6FC" font-family="Inter, Segoe UI, Arial, sans-serif" font-size="23" font-weight="900">AI, ML &amp; Vision</text>
      <text x="766" y="186" fill="#8B949E" font-family="JetBrains Mono, Consolas, monospace" font-size="13">applied intelligence for real projects</text>
      <g transform="translate(766 196)">
        <rect width="107" height="38" rx="12" fill="#101826" stroke="#263449"/>
        <circle cx="21" cy="19" r="5" fill="#10A37F"/>
        <text x="36" y="24" fill="#F0F6FC" font-family="Inter, Segoe UI, Arial, sans-serif" font-size="14" font-weight="800">ChatGPT</text>
      </g>
<g transform="translate(885 196)">
        <rect width="98" height="38" rx="12" fill="#101826" stroke="#263449"/>
        <circle cx="21" cy="19" r="5" fill="#D97757"/>
        <text x="36" y="24" fill="#F0F6FC" font-family="Inter, Segoe UI, Arial, sans-serif" font-size="14" font-weight="800">Claude</text>
      </g>
<g transform="translate(995 196)">
        <rect width="125" height="38" rx="12" fill="#101826" stroke="#263449"/>
        <circle cx="21" cy="19" r="5" fill="#58A6FF"/>
        <text x="36" y="24" fill="#F0F6FC" font-family="Inter, Segoe UI, Arial, sans-serif" font-size="14" font-weight="800">Chat APIs</text>
      </g>
<g transform="translate(1132 196)">
        <rect width="152" height="38" rx="12" fill="#101826" stroke="#263449"/>
        <circle cx="21" cy="19" r="5" fill="#F7931E"/>
        <text x="36" y="24" fill="#F0F6FC" font-family="Inter, Segoe UI, Arial, sans-serif" font-size="14" font-weight="800">Scikit-Learn</text>
      </g>
<g transform="translate(766 240)">
        <rect width="98" height="38" rx="12" fill="#101826" stroke="#263449"/>
        <circle cx="21" cy="19" r="5" fill="#5C3EE8"/>
        <text x="36" y="24" fill="#F0F6FC" font-family="Inter, Segoe UI, Arial, sans-serif" font-size="14" font-weight="800">OpenCV</text>
      </g>
    </g>
<g>
      <rect x="740" y="292" width="590" height="142" rx="20" fill="#0B111D" stroke="#263449"/>
      <text x="766" y="330" fill="#F0F6FC" font-family="Inter, Segoe UI, Arial, sans-serif" font-size="23" font-weight="900">Digital Strategy</text>
      <text x="766" y="354" fill="#8B949E" font-family="JetBrains Mono, Consolas, monospace" font-size="13">content, presence and conversion</text>
      <g transform="translate(766 364)">
        <rect width="152" height="38" rx="12" fill="#101826" stroke="#263449"/>
        <circle cx="21" cy="19" r="5" fill="#E4405F"/>
        <text x="36" y="24" fill="#F0F6FC" font-family="Inter, Segoe UI, Arial, sans-serif" font-size="14" font-weight="800">Social Media</text>
      </g>
<g transform="translate(930 364)">
        <rect width="197" height="38" rx="12" fill="#101826" stroke="#263449"/>
        <circle cx="21" cy="19" r="5" fill="#39D353"/>
        <text x="36" y="24" fill="#F0F6FC" font-family="Inter, Segoe UI, Arial, sans-serif" font-size="14" font-weight="800">Marketing Digital</text>
      </g>
<g transform="translate(1139 364)">
        <rect width="116" height="38" rx="12" fill="#101826" stroke="#263449"/>
        <circle cx="21" cy="19" r="5" fill="#A5D6FF"/>
        <text x="36" y="24" fill="#F0F6FC" font-family="Inter, Segoe UI, Arial, sans-serif" font-size="14" font-weight="800">Creative</text>
      </g>
<g transform="translate(766 408)">
        <rect width="134" height="38" rx="12" fill="#101826" stroke="#263449"/>
        <circle cx="21" cy="19" r="5" fill="#F7DF1E"/>
        <text x="36" y="24" fill="#F0F6FC" font-family="Inter, Segoe UI, Arial, sans-serif" font-size="14" font-weight="800">Conversion</text>
      </g>
    </g>
</svg>